<svg xmlns="http://www.w3.org/2000/svg" viewBox="0 365.1 595.3 425.3" preserveAspectRatio="xMinYMid"><path fill="#212120" d="M0 439.8v140.3l78.7 153.1H159L0 439.8"/><path fill="#818180" d="M128.3 790.4l30.7-57.2H78.7l-26.2 57.2h75.8"/><path fill="#414140" d="M5.3 702.1l47.2 88.3h75.8l-49.1-88.3H5.3"/><path fill="#818180" d="M5.3 702.1l180.1-335.9h70.2L79.2 702.1H5.3"/><path fill="#575756" d="M595.3 373.2c0-4.4-3.6-8.1-8.1-8.1H185.91L40.836 635.841 587.3 635.8c4.4 0 8.1-3.6 8.1-8.1V373.2h-.1"/><path fill="none" d="M172 440h387.2v141.4h-387z"/><text alignment-baseline="alphabetic" x="172" y="496" fill="#95C11F" font-size="65.685">WELCOME</text><text alignment-baseline="alphabetic" x="555" y="545" fill="#FFF" text-anchor="end" font-size="47">I’m Johan Meester</text><defs><mask id="a"><circle cx="553" cy="407" r="32.5" fill="#fff"/></mask></defs><image xmlns:xlink="http://www.w3.org/1999/xlink" xlink:href="./assets/images/itsme-trevi-rome.jpg" preserveAspectRatio="none" x="520" y="374" width="65" height="65" mask="url('#a')"/><text alignment-baseline="alphabetic" x="555" y="580" fill="#FFF" font-size="20" text-anchor="end">FRONT-END DEVELOPER</text></svg>