<?xml version="1.0" encoding="utf-8"?>
<!-- Generator: Adobe Illustrator 17.1.0, SVG Export Plug-In . SVG Version: 6.00 Build 0)  -->
<!DOCTYPE svg PUBLIC "-//W3C//DTD SVG 1.1//EN" "http://www.w3.org/Graphics/SVG/1.1/DTD/svg11.dtd">
<svg version="1.1" id="Laag_1" xmlns="http://www.w3.org/2000/svg" xmlns:xlink="http://www.w3.org/1999/xlink" x="0px" y="0px"
	 viewBox="0 0 1130 580" enable-background="new 0 0 1130 580" xml:space="preserve">
<g>
	<g>
		<g>
			<defs>
				<circle id="SVGID_1_" cx="287.5" cy="290" r="277.6"/>
			</defs>
			<clipPath id="SVGID_2_">
				<use xlink:href="#SVGID_1_"  overflow="visible"/>
			</clipPath>
			<g clip-path="url(#SVGID_2_)">
				<path fill="#9966FF" d="M9.9,12.4H565v276.5H9.9V12.4z"/>
				<path fill="#6699FF" d="M9.9,287.9H565v279.7H9.9V287.9z"/>
			</g>
		</g>
	</g>
	<circle fill="none" stroke="#FFC40D" stroke-width="8.8987" stroke-miterlimit="10" cx="287.5" cy="290" r="271"/>
	<path fill="#FFFFFF" d="M208,116.9c-2.4,1.8-2.9,4.7-2.3,18.4c0.9,25.6,5.2,28.2,48.2,30.9c15.8,0.9,33.7,2.1,39.6,2.7l10.8,0.9
		l-2.4,12c-1.8,8.6-2.1,18.5-1.4,36.4c0.6,13.5,0.6,24.6,0.3,24.6s-11.8,2.1-25.3,4.7c-22.6,4.2-27,4.6-54.9,3.6
		c-33.8-1.2-34.4-0.9-34.4,10c0,15.6,8.9,25.6,27.8,31.7c17.3,5.5,52.3,5,89-0.9l7.3-1.2l1.4,9.3c1.7,12.3,1.7,41,0.2,52.8l-1.5,9.6
		l-24.4-0.9c-31.7-1.1-79,3-105.9,9.4c-18.7,4.4-25.3,6.2-29.4,8.5c-2.7,1.4-5.9,2.4-7.4,2.4c-1.4,0-6.5,2.1-11.4,4.7
		c-4.7,2.6-10.8,5.8-13,7c-2.4,1.4-6.4,5.3-8.9,8.9c-3.5,5.3-4.4,8.6-3.9,15.9c0.9,18.5,11.1,33.1,28.7,41.3
		c8.9,4.2,11.1,4.4,30.2,3.5c18.7-0.9,57.9-6.8,66.7-10.2c2-0.6,8.3-2.7,14.3-4.4c5.9-1.7,13.3-4.2,16.5-5.5c3.2-1.4,6.8-2.4,8-2.4
		c3.6,0,41.9-20.2,50.7-26.8c4.7-3.5,10.2-9.6,12.4-13.7l4.1-7.3l19.1,5c33.7,8.9,50.2,16.8,66,31.2c6.7,6.1,11.2,11.8,11.8,15
		c0.6,2.9,1.8,5.6,2.9,6.2c0.9,0.6,1.7,2.4,1.7,4.4c0,1.8,1.7,5.2,3.6,7c4.7,4.7,11.2,3.2,19.1-4.2c19.3-18.4,6.1-45.2-31.7-64.5
		c-24.9-12.7-35.3-16.4-62.9-21.8l-24.9-5l-1.4-17c-0.6-9.3-3.2-26.8-5.8-38.8c-2.6-12-4.4-22.1-4.1-22.3c0.3-0.2,8.9-2,19.1-4.2
		c30.2-6.4,50.1-17.3,56.7-30.9c4.2-8.6,4.4-11.7,1.8-21.1c-2.9-9.9-6.7-10-31.4-1.7c-25.3,8.5-53.1,13-55.7,9.1
		c-4.7-7.6,1.4-38.8,11.2-57.3l5.9-11.1l27.9-0.2c30.6-0.2,49.7-3.3,63.9-10.6c20.3-10.3,22.6-27.5,5.5-37.6l-7.3-3
		c-3-1.4-6.4-1.8-9.7-2l-42-0.3c-27.9-0.2-76.4-0.6-108-1.2C225,115.1,210.3,115.4,208,116.9L208,116.9z M297.8,392.2
		c-5.6,3.9-18,10-33.8,17c-3.3,1.5-7.6,3.3-9.1,4.2c-1.7,0.8-6.1,2-9.7,2.7c-3.8,0.6-7.7,1.7-8.6,2.4c-0.9,0.6-8.2,2.6-16.1,4.2
		c-7.7,1.7-17.7,3.9-22,5c-4.2,1.1-18.8,2-32.2,2c-19.7,0-25.6-0.6-30.9-3.2c-4.1-2-6.5-4.2-6.2-5.9c0.6-3.5,24.9-15.9,35.2-18
		c4.4-0.9,11.2-2.4,15-3.6c17.7-4.7,65.4-9.3,107.4-10.3l17-0.5L297.8,392.2z"/>
</g>
<text transform="matrix(1 0 0 1 651.4241 254.6617)" font-family="'OpenSans'" font-size="109.2016">JOHAN</text>
<text transform="matrix(1 0 0 1 651.4241 385.7036)" font-family="'OpenSans'" font-size="109.2016">MEESTER</text>
</svg>
