<svg xmlns="http://www.w3.org/2000/svg" xmlns:xlink="http://www.w3.org/1999/xlink" viewBox="0 123.3 512 512"><defs><circle id="a" cx="256" cy="379.3" r="256"/></defs><clipPath id="b"><use xlink:href="#a" overflow="visible"/></clipPath><g clip-path="url(#b)"><path fill="#96F" d="M0 123.3h512v255H0z"/><path fill="#69F" d="M0 377.3h512v258H0z"/></g><circle cx="256" cy="379.3" r="248" fill="none" stroke="#FFC40D" stroke-width="15.436" stroke-miterlimit="10"/><path fill="#FFF" d="M182.8 219.7c-2.3 1.7-2.6 4.4-2.1 16.9.9 23.7 4.7 26 44.5 28.5 14.6.9 31.1 2 36.5 2.5l9.9.8-2.3 11c-1.7 8-2 17.1-1.3 33.6.6 12.5.6 22.6.3 22.6s-10.9 1.9-23.4 4.3c-20.8 3.9-24.9 4.2-50.6 3.3-31.2-1.1-31.8-.9-31.8 9.2 0 14.4 8.3 23.7 25.6 29.2 15.9 5 48.3 4.6 82.1-.8l6.7-1.1 1.2 8.5c1.6 11.4 1.6 37.8.1 48.7l-1.4 8.8-22.5-.8c-29.3-1-72.9 2.8-97.7 8.7-17.2 4-23.3 5.8-27.2 7.9-2.5 1.3-5.5 2.3-6.8 2.3s-6 1.9-10.5 4.3c-4.4 2.4-9.9 5.3-12.1 6.5-2.3 1.2-5.9 4.9-8.3 8.3-3.2 4.9-4 8-3.7 14.7.8 17.1 10.2 30.5 26.5 38 8.3 3.9 10.2 4 27.9 3.2 17.2-.8 53.5-6.3 61.6-9.4 1.8-.6 7.7-2.5 13.1-4.1 5.4-1.6 12.3-3.9 15.2-5.1 2.9-1.3 6.3-2.3 7.4-2.3 3.4 0 38.6-18.6 46.7-24.7 4.3-3.2 9.4-8.8 11.5-12.6l3.8-6.7 17.6 4.6c31 8.2 46.3 15.5 60.8 28.8 6.1 5.6 10.3 10.9 10.9 13.9.5 2.7 1.7 5.2 2.6 5.8.8.6 1.5 2.3 1.5 4.1 0 1.7 1.5 4.7 3.3 6.5 4.3 4.3 10.4 3 17.6-3.9 17.8-16.9 5.6-41.7-29.2-59.5-23-11.7-32.6-15.1-58-20.2l-23-4.6-1.2-15.6c-.6-8.6-3-24.7-5.3-35.8s-4-20.4-3.8-20.5c.3-.2 8.2-1.8 17.6-3.9 27.9-5.9 46.2-15.9 52.3-28.5 3.9-8 4.1-10.8 1.7-19.5-2.6-9.1-6.1-9.3-29-1.6-23.3 7.9-49 12.1-51.3 8.4-4.4-7 1.2-35.8 10.3-52.9l5.4-10.2 25.8-.2c28.2-.2 45.9-3.1 58.9-9.8 18.7-9.5 20.9-25.3 5-34.7l-6.7-2.8c-2.8-1.2-5.9-1.7-8.9-1.8l-38.8-.3c-25.8-.2-70.5-.6-99.6-1.1-39.8-.6-53.4-.3-55.4 1.1zm82.8 253.9c-5.2 3.6-16.6 9.2-31.2 15.6-3.1 1.4-7 3.1-8.4 3.9-1.5.7-5.6 1.8-9 2.5-3.5.6-7.1 1.6-8 2.3-.9.6-7.5 2.4-14.8 3.9-7.2 1.6-16.3 3.6-20.3 4.6-3.9 1-17.3 1.8-29.6 1.8-18.2 0-23.7-.5-28.6-2.9-3.8-1.8-6-3.9-5.7-5.4.6-3.2 23-14.7 32.5-16.7 4.1-.8 10.3-2.3 13.9-3.3 16.4-4.3 60.3-8.5 99-9.5l15.6-.4-5.4 3.6z"/></svg>