<svg xmlns="http://www.w3.org/2000/svg" viewBox="0 0 140 100"><path fill="#D9D9D9" d="M0 0h140v100H0z"/><path fill="#FFF" d="M56.1 19.7c-.4.3-.5.8-.4 3.2.2 4.5.9 4.9 8.5 5.4 2.8.2 5.9.4 6.9.5l1.9.2-.4 2.1c-.3 1.5-.4 3.3-.2 6.4.1 2.4.1 4.3.1 4.3s-2.1.4-4.4.8c-3.9.7-4.7.8-9.6.6-5.9-.2-6-.2-6 1.7 0 2.7 1.6 4.5 4.9 5.5 3 .9 9.2.9 15.6-.2l1.3-.2.2 1.6c.3 2.2.3 7.2 0 9.3l-.3 1.7-4.3-.2c-5.6-.2-13.8.5-18.6 1.7-3.3.8-4.4 1.1-5.2 1.5-.5.2-1 .4-1.3.4s-1.1.4-2 .8c-.8.5-1.9 1-2.3 1.2-.4.2-1.1.9-1.6 1.6-.6.9-.8 1.5-.7 2.8.2 3.2 1.9 5.8 5 7.2 1.6.7 1.9.8 5.3.6 3.3-.2 10.2-1.2 11.7-1.8.3-.1 1.5-.5 2.5-.8 1-.3 2.3-.7 2.9-1 .6-.2 1.2-.4 1.4-.4.6 0 7.3-3.5 8.9-4.7.8-.6 1.8-1.7 2.2-2.4l.7-1.3 3.3.9c5.9 1.5 8.8 2.9 11.5 5.5 1.1 1.1 1.9 2.1 2.1 2.6.1.5.3 1 .5 1.1.2.1.3.4.3.8 0 .3.3.9.6 1.2.8.8 2 .6 3.3-.7 3.4-3.2 1.1-7.9-5.5-11.3-4.4-2.2-6.2-2.9-11-3.8l-4.4-.9-.2-3c-.1-1.6-.6-4.7-1-6.8-.4-2.1-.8-3.9-.7-3.9.1 0 1.5-.3 3.3-.7 5.3-1.1 8.8-3 9.9-5.4.7-1.5.8-2.1.3-3.7-.5-1.7-1.2-1.8-5.5-.3-4.4 1.5-9.3 2.3-9.8 1.6-.8-1.3.2-6.8 1.9-10.1l1-1.9h4.9c5.4 0 8.7-.6 11.2-1.9 3.5-1.8 4-4.8.9-6.6l-1.3-.5c-.5-.2-1.1-.3-1.7-.3l-7.4-.1c-4.9 0-13.4-.1-18.9-.2-7.3 0-9.9.1-10.3.3zM71.8 68c-1 .7-3.1 1.7-5.9 3-.6.3-1.3.6-1.6.7s-1.1.3-1.7.5c-.7.1-1.3.3-1.5.4-.2.1-1.4.5-2.8.7-1.4.3-3.1.7-3.8.9-.7.2-3.3.3-5.6.3-3.5 0-4.5-.1-5.4-.6-.7-.3-1.1-.7-1.1-1 .1-.6 4.4-2.8 6.2-3.2.8-.2 1.9-.4 2.6-.6 3.1-.8 11.5-1.6 18.8-1.8l3-.1-1.2.8z"/></svg>