<svg version="1" xmlns="http://www.w3.org/2000/svg" width="933.333" height="933.333" viewBox="0 0 700.000000 700.000000"><path d="M340.8.7c5 .2 13.4.2 18.5 0 5-.1.9-.3-9.3-.3-10.2 0-14.3.2-9.2.3zM321.3 1.7c1.5.2 3.7.2 5 0 1.2-.2 0-.4-2.8-.4-2.7 0-3.8.2-2.2.4zM374.3 1.7c1.5.2 3.7.2 5 0 1.2-.2 0-.4-2.8-.4-2.7 0-3.8.2-2.2.4zM310.3 2.7c.9.2 2.5.2 3.5 0 .9-.3.1-.5-1.8-.5-1.9 0-2.7.2-1.7.5zM386.3 2.7c.9.2 2.5.2 3.5 0 .9-.3.1-.5-1.8-.5-1.9 0-2.7.2-1.7.5zM302.3 3.7c.9.2 2.5.2 3.5 0 .9-.3.1-.5-1.8-.5-1.9 0-2.7.2-1.7.5zM394.3 3.7c.9.2 2.5.2 3.5 0 .9-.3.1-.5-1.8-.5-1.9 0-2.7.2-1.7.5zM295.3 4.7c.9.2 2.3.2 3 0 .6-.3-.1-.5-1.8-.5-1.6 0-2.2.2-1.2.5zM402.3 4.7c.9.2 2.3.2 3 0 .6-.3-.1-.5-1.8-.5-1.6 0-2.2.2-1.2.5zM289.8 5.7c.6.2 1.8.2 2.5 0 .6-.3.1-.5-1.3-.5-1.4 0-1.9.2-1.2.5zM407.8 5.7c.6.2 1.8.2 2.5 0 .6-.3.1-.5-1.3-.5-1.4 0-1.9.2-1.2.5zM283.8 6.7c.6.2 1.8.2 2.5 0 .6-.3.1-.5-1.3-.5-1.4 0-1.9.2-1.2.5zM413.8 6.7c.6.2 1.8.2 2.5 0 .6-.3.1-.5-1.3-.5-1.4 0-1.9.2-1.2.5zM278.8 7.7c.6.2 1.8.2 2.5 0 .6-.3.1-.5-1.3-.5-1.4 0-1.9.2-1.2.5zM418.8 7.7c.6.2 1.8.2 2.5 0 .6-.3.1-.5-1.3-.5-1.4 0-1.9.2-1.2.5zM274.8 8.7c.7.3 1.6.2 1.9-.1.4-.3-.2-.6-1.3-.5-1.1 0-1.4.3-.6.6zM423.8 8.7c.7.3 1.6.2 1.9-.1.4-.3-.2-.6-1.3-.5-1.1 0-1.4.3-.6.6zM269.8 9.7c.6.2 1.8.2 2.5 0 .6-.3.1-.5-1.3-.5-1.4 0-1.9.2-1.2.5zM427.8 9.7c.6.2 1.8.2 2.5 0 .6-.3.1-.5-1.3-.5-1.4 0-1.9.2-1.2.5zM265.8 10.7c.7.3 1.6.2 1.9-.1.4-.3-.2-.6-1.3-.5-1.1 0-1.4.3-.6.6zM432.8 10.7c.7.3 1.6.2 1.9-.1.4-.3-.2-.6-1.3-.5-1.1 0-1.4.3-.6.6zM261.8 11.7c.7.3 1.6.2 1.9-.1.4-.3-.2-.6-1.3-.5-1.1 0-1.4.3-.6.6zM436.8 11.7c.7.3 1.6.2 1.9-.1.4-.3-.2-.6-1.3-.5-1.1 0-1.4.3-.6.6zM255.5 13c-1.3.5-1.4.9-.5.9.8 0 2.4-.4 3.5-.9 1.3-.5 1.4-.9.5-.9-.8 0-2.4.4-3.5.9zM441.5 13c1.1.5 2.7.9 3.5.9.9 0 .8-.4-.5-.9-1.1-.5-2.7-.9-3.5-.9-.9 0-.8.4.5.9zM248.5 15c-1.3.5-1.4.9-.5.9.8 0 2.4-.4 3.5-.9 1.3-.5 1.4-.9.5-.9-.8 0-2.4.4-3.5.9zM448.5 15c1.1.5 2.7.9 3.5.9.9 0 .8-.4-.5-.9-1.1-.5-2.7-.9-3.5-.9-.9 0-.8.4.5.9zM220.7 24.7c-4.8 1.9-8.6 3.7-8.4 3.9.3.4 17.8-6.4 18.6-7.2 1.1-1-2.1 0-10.2 3.3zM330.5 21.6c-31.5 3.1-42.4 4.8-64.1 10.4-70.5 18.2-134.6 61.2-179 120.3-35.5 47.3-56.4 99.1-64 159.2-2.2 16.9-2.5 55.3-.6 72C32.2 466 67.5 536 128 592.3c50.5 47.1 116.2 76.6 188.5 84.9 14.2 1.6 52.8 1.6 67 0 62.1-7.1 116.7-28.7 165-65.2 66-50 111.9-125.2 125.4-205.6 6.6-39.2 6.2-81.9-1-118.9-15.8-80.4-60.1-151.2-125.2-200.1C500.5 52 448.1 30.9 389 23.5c-11.9-1.5-50-2.7-58.5-1.9zm74 109.4c60 .6 111.8 1.5 115.1 2 12.3 2 24.4 9.3 28.6 17.3 2.7 5.3 2.9 12.8.3 18.1-4.2 8.6-16.7 17.6-31.9 22.7-17.9 6-38.2 7.8-101.2 8.9-1.8 0-3.4 2.3-8.2 11.8-10.6 20.8-18 49.8-16.9 65.5.6 9.4 1.6 10.2 12 10 13.7-.3 35.2-5.1 66.4-14.9 26.8-8.4 30.9-7.4 34.3 9 3.5 16.9-7.7 33.8-29.9 45.4-12.3 6.4-26 10.9-49.1 16.2-10.2 2.3-18.8 4.5-19.1 4.9-.4.3 1.3 11.2 3.7 24.1 4.4 23.8 7.7 48 8.9 64.6l.7 9.2 11.1 2.1c50.2 9.9 63.4 14 93.9 29.2 17.6 8.7 29.2 16.4 38.4 25.4 21.7 21.3 24.1 42.5 6.5 58.7-7.3 6.8-12.2 9.2-16.9 8.4-5.4-.8-11.2-7.3-11.2-12.6 0-1.2-.8-3.4-1.8-4.8-1.1-1.5-2.4-4.2-3.1-6.1-2.2-6.6-6.1-11.9-14.6-19.9-18.5-17.2-37-26.8-70.8-36.7-15.3-4.4-34.8-9.5-36.5-9.5-.5 0-2.7 3-4.8 6.7-8.3 14.3-20 22.9-55.9 41.4-12.9 6.7-21.5 10.3-35.5 14.9-34 11.2-43.4 14-56.1 16.5-32.2 6.3-77.6 10.5-90.4 8.5-8-1.3-20.4-6.9-28-12.7-11.4-8.8-19.5-23-21.6-38-2.8-20.4 4.1-31.2 27.7-43.5 7.1-3.6 14.9-7.2 17.4-7.9 2.5-.6 8.4-2.7 13.1-4.5 9.7-3.8 40.6-11.6 54.9-13.8 39-6.2 82.6-8.8 127-7.6l17.5.4 1.3-8.9c2.8-18.9 1.3-80.5-1.9-80.5-.5 0-5.5.7-11.1 1.5-43.8 6.6-85.3 7.2-106.6 1.4-16.9-4.5-29.6-13.7-34.7-25.1-2.4-5.3-2.9-7.7-2.9-15-.1-9.9.7-11.4 7-12.9 2.3-.5 18-.6 37.4-.3 22.8.5 36.4.3 42.8-.5 9-1.1 52-8.6 55.4-9.7 1.6-.5 1.8-3 1.5-34.7-.2-32.3-.1-34.8 2.1-45.6 1.3-6.2 2.2-11.5 2-11.6-.2-.2-20.1-1.7-44.3-3.4-48.5-3.5-58.4-4.8-66.5-8.9-10.1-5.1-12.4-11.9-12.5-36.4 0-11.1.4-16.1 1.2-16.9 3.2-3.2 10.2-3.3 155.8-1.9z"/><path d="M329 475.6c-91.2 4.2-136.8 12.9-169.1 32.1-11 6.5-11.5 9.4-2.6 13.8 2.9 1.3 8.4 2.9 12.2 3.5 8.8 1.2 40.4 1.3 55.1 0 10.8-.8 49.7-9.1 59.4-12.5 2.5-.9 8.8-2.7 14.1-4 13.7-3.5 55-22.7 68.9-32.1l3.5-2.4-7 .1c-3.9.1-19.4.7-34.5 1.5zM469.1 21.4c.8.8 18.3 7.6 18.6 7.2.2-.2-3.7-2-8.7-4-8.4-3.4-10.9-4.2-9.9-3.2zM206 31c-1.9 1.1-3 1.9-2.5 1.9.6 0 2.6-.8 4.5-1.9 1.9-1.1 3.1-1.9 2.5-1.9-.5 0-2.6.8-4.5 1.9zM492 31c1.9 1.1 4 1.9 4.5 1.9.6 0-.6-.8-2.5-1.9-1.9-1.1-3.9-1.9-4.5-1.9-.5 0 .6.8 2.5 1.9zM194.8 36.1c-3.2 1.6-5.8 3.2-5.8 3.4 0 .5 11.9-5.2 12.9-6.1 1.3-1.2-2.2.1-7.1 2.7zM498.1 33.4c1 .9 12.9 6.6 12.9 6.1S499.4 33 498.4 33c-.4 0-.5.2-.3.4zM177.3 45.6c-3.5 1.9-6.3 3.7-6.3 4 0 .6 10.9-5.3 12.5-6.8 1.7-1.5 0-.8-6.2 2.8zM516.5 42.7c.6.5 3.7 2.5 7 4.3 3.3 1.8 5.6 2.8 5 2.3-.5-.6-3.7-2.6-7-4.4-3.3-1.8-5.5-2.8-5-2.2zM166.3 52.1c-3.5 2.2-4.6 3.7-1.5 2 2.2-1.3 5.8-4 5.2-4.1-.3 0-2 1-3.7 2.1zM531.5 51.5c1.1.9 2.9 2.1 4 2.6l2 1-2-1.6c-1.1-.9-2.9-2.1-4-2.6l-2-1 2 1.6zM150.7 62.4c-18.3 12.8-29.6 22.4-47.8 40.5-17.6 17.7-27 28.7-39.4 46.1-6 8.6-9.7 14.3-8.2 13 .3-.3 3.9-5.3 8-11.2 12.7-18.2 22.5-29.6 40.2-47.3 17.7-17.7 29.1-27.5 47.3-40.2 11.3-7.9 11.8-8.3 11-8.3-.3 0-5.3 3.3-11.1 7.4zM538 55.3c.3.3 5.3 3.9 11.2 8 18.2 12.7 29.6 22.5 47.3 40.2 17.7 17.7 27.5 29.1 40.2 47.3 7.8 11.1 9.3 13.1 7.5 9.7-1.8-3.5-14.1-20.6-22-30.5-9.8-12.3-39.9-42.4-52.2-52.2-13-10.3-35-25.8-32-22.5zM53.4 164.2c-.4.7-1.4 2.4-2.2 3.8-1.4 2.4-1.3 2.4.3.5 2-2.4 3.7-5.5 3.1-5.5-.3 0-.8.6-1.2 1.2z"/><path d="M645.9 164.5c.5 1.1 1.7 2.9 2.6 4l1.6 2-1-2c-.5-1.1-1.7-2.9-2.6-4l-1.6-2 1 2zM46.7 175.2c-3.5 6.1-5.1 9.5-4 8.3 1.4-1.4 7.6-12.5 7-12.5-.3 0-1.6 1.9-3 4.2zM653 176.5c1.8 3.3 3.8 6.4 4.3 7 .6.5-.4-1.7-2.2-5-1.8-3.3-3.8-6.5-4.4-7-.5-.6.5 1.7 2.3 5zM35.9 195.1c-1.6 3.4-2.9 6.3-2.7 6.5.2.2 1.8-2.6 3.6-6.1 1.7-3.6 3-6.5 2.7-6.5-.3 0-1.9 2.7-3.6 6.1zM663.2 195.5c1.8 3.5 3.4 6.3 3.6 6.1.4-.5-5.6-12.6-6.3-12.6-.3 0 1 2.9 2.7 6.5zM30.7 206.5c-2.4 5-2 5.8.4 1.2 1.1-2.2 1.9-4.1 1.7-4.3-.3-.2-1.2 1.2-2.1 3.1zM667.1 203.5c0 .5.8 2.6 1.9 4.5 1.1 1.9 1.9 3 1.9 2.5 0-.6-.8-2.6-1.9-4.5-1.1-1.9-1.9-3.1-1.9-2.5zM24.6 221.1c-2 5-3.5 9.3-3.3 9.5.2.2 2-3.7 4-8.8 2-5 3.5-9.3 3.3-9.5-.2-.2-2 3.7-4 8.8zM671.3 213.2c.3.7 2 5 3.8 9.6 1.8 4.5 3.4 8 3.6 7.8.5-.5-6.7-18.6-7.4-18.6-.3 0-.3.6 0 1.2zM14.6 249.6c-.4 1.4-.5 2.8-.3 3.1.3.2.8-.8 1.1-2.3.4-1.4.5-2.8.3-3.1-.3-.2-.8.8-1.1 2.3zM684.1 248c0 .8.4 2.4.9 3.5.5 1.3.9 1.4.9.5 0-.8-.4-2.4-.9-3.5-.5-1.3-.9-1.4-.9-.5zM12.6 256.6c-.4 1.4-.5 2.8-.3 3.1.3.2.8-.8 1.1-2.3.4-1.4.5-2.8.3-3.1-.3-.2-.8.8-1.1 2.3zM686.1 255c0 .8.4 2.4.9 3.5.5 1.3.9 1.4.9.5 0-.8-.4-2.4-.9-3.5-.5-1.3-.9-1.4-.9-.5zM11.1 262.6c0 1.1.3 1.4.6.6.3-.7.2-1.6-.1-1.9-.3-.4-.6.2-.5 1.3zM688.1 262.6c0 1.1.3 1.4.6.6.3-.7.2-1.6-.1-1.9-.3-.4-.6.2-.5 1.3zM10.1 266.6c0 1.1.3 1.4.6.6.3-.7.2-1.6-.1-1.9-.3-.4-.6.2-.5 1.3zM689.1 266.6c0 1.1.3 1.4.6.6.3-.7.2-1.6-.1-1.9-.3-.4-.6.2-.5 1.3zM9.2 271c0 1.4.2 1.9.5 1.2.2-.6.2-1.8 0-2.5-.3-.6-.5-.1-.5 1.3zM690.2 271c0 1.4.2 1.9.5 1.2.2-.6.2-1.8 0-2.5-.3-.6-.5-.1-.5 1.3zM8.1 275.6c0 1.1.3 1.4.6.6.3-.7.2-1.6-.1-1.9-.3-.4-.6.2-.5 1.3zM691.1 275.6c0 1.1.3 1.4.6.6.3-.7.2-1.6-.1-1.9-.3-.4-.6.2-.5 1.3zM7.2 280c0 1.4.2 1.9.5 1.2.2-.6.2-1.8 0-2.5-.3-.6-.5-.1-.5 1.3zM692.2 280c0 1.4.2 1.9.5 1.2.2-.6.2-1.8 0-2.5-.3-.6-.5-.1-.5 1.3zM6.2 285c0 1.4.2 1.9.5 1.2.2-.6.2-1.8 0-2.5-.3-.6-.5-.1-.5 1.3zM693.2 285c0 1.4.2 1.9.5 1.2.2-.6.2-1.8 0-2.5-.3-.6-.5-.1-.5 1.3zM5.2 291c0 1.4.2 1.9.5 1.2.2-.6.2-1.8 0-2.5-.3-.6-.5-.1-.5 1.3zM694.2 291c0 1.4.2 1.9.5 1.2.2-.6.2-1.8 0-2.5-.3-.6-.5-.1-.5 1.3zM4.2 296.5c0 1.6.2 2.2.5 1.2.2-.9.2-2.3 0-3-.3-.6-.5.1-.5 1.8zM695.2 296.5c0 1.6.2 2.2.5 1.2.2-.9.2-2.3 0-3-.3-.6-.5.1-.5 1.8zM3.2 304c0 1.9.2 2.7.5 1.7.2-.9.2-2.5 0-3.5-.3-.9-.5-.1-.5 1.8zM696.2 304c0 1.9.2 2.7.5 1.7.2-.9.2-2.5 0-3.5-.3-.9-.5-.1-.5 1.8zM2.2 312c0 1.9.2 2.7.5 1.7.2-.9.2-2.5 0-3.5-.3-.9-.5-.1-.5 1.8zM697.2 312c0 1.9.2 2.7.5 1.7.2-.9.2-2.5 0-3.5-.3-.9-.5-.1-.5 1.8zM1.3 323.5c0 2.7.2 3.8.4 2.2.2-1.5.2-3.7 0-5-.2-1.2-.4 0-.4 2.8zM698.3 323.5c0 2.7.2 3.8.4 2.2.2-1.5.2-3.7 0-5-.2-1.2-.4 0-.4 2.8zM.4 348c0 9.1.2 12.8.3 8.2.2-4.5.2-11.9 0-16.5-.1-4.5-.3-.8-.3 8.3zM699.4 348c0 9.1.2 12.8.3 8.2.2-4.5.2-11.9 0-16.5-.1-4.5-.3-.8-.3 8.3zM1.3 376c0 2.5.2 3.5.4 2.2.2-1.2.2-3.2 0-4.5-.2-1.2-.4-.2-.4 2.3zM698.3 376c0 2.5.2 3.5.4 2.2.2-1.2.2-3.2 0-4.5-.2-1.2-.4-.2-.4 2.3zM2.2 387.5c0 1.6.2 2.2.5 1.2.2-.9.2-2.3 0-3-.3-.6-.5.1-.5 1.8zM697.2 387.5c0 1.6.2 2.2.5 1.2.2-.9.2-2.3 0-3-.3-.6-.5.1-.5 1.8zM3.2 395.5c0 1.6.2 2.2.5 1.2.2-.9.2-2.3 0-3-.3-.6-.5.1-.5 1.8zM696.2 395.5c0 1.6.2 2.2.5 1.2.2-.9.2-2.3 0-3-.3-.6-.5.1-.5 1.8zM4.2 403c0 1.4.2 1.9.5 1.2.2-.6.2-1.8 0-2.5-.3-.6-.5-.1-.5 1.3zM695.2 403c0 1.4.2 1.9.5 1.2.2-.6.2-1.8 0-2.5-.3-.6-.5-.1-.5 1.3zM5.2 409c0 1.4.2 1.9.5 1.2.2-.6.2-1.8 0-2.5-.3-.6-.5-.1-.5 1.3zM694.2 409c0 1.4.2 1.9.5 1.2.2-.6.2-1.8 0-2.5-.3-.6-.5-.1-.5 1.3zM6.1 414.6c0 1.1.3 1.4.6.6.3-.7.2-1.6-.1-1.9-.3-.4-.6.2-.5 1.3zM693.1 414.6c0 1.1.3 1.4.6.6.3-.7.2-1.6-.1-1.9-.3-.4-.6.2-.5 1.3zM7.2 420c0 1.4.2 1.9.5 1.2.2-.6.2-1.8 0-2.5-.3-.6-.5-.1-.5 1.3zM692.2 420c0 1.4.2 1.9.5 1.2.2-.6.2-1.8 0-2.5-.3-.6-.5-.1-.5 1.3zM8.1 424.6c0 1.1.3 1.4.6.6.3-.7.2-1.6-.1-1.9-.3-.4-.6.2-.5 1.3zM691.1 424.6c0 1.1.3 1.4.6.6.3-.7.2-1.6-.1-1.9-.3-.4-.6.2-.5 1.3zM10.1 433.6c0 1.1.3 1.4.6.6.3-.7.2-1.6-.1-1.9-.3-.4-.6.2-.5 1.3zM689.1 433.6c0 1.1.3 1.4.6.6.3-.7.2-1.6-.1-1.9-.3-.4-.6.2-.5 1.3zM11.1 437.6c0 1.1.3 1.4.6.6.3-.7.2-1.6-.1-1.9-.3-.4-.6.2-.5 1.3zM688.1 437.6c0 1.1.3 1.4.6.6.3-.7.2-1.6-.1-1.9-.3-.4-.6.2-.5 1.3zM13.1 444.6c0 1.1.3 1.4.6.6.3-.7.2-1.6-.1-1.9-.3-.4-.6.2-.5 1.3zM686.1 444.6c0 1.1.3 1.4.6.6.3-.7.2-1.6-.1-1.9-.3-.4-.6.2-.5 1.3zM30 491.5c0 .5.5 1.7 1 2.5s1 1 1 .5c0-.6-.5-1.7-1-2.5s-1-1.1-1-.5zM668.6 492.5c-.9 2.6-.7 3.2.5 1.2.6-1 .9-2.1.6-2.3-.2-.3-.7.2-1.1 1.1zM44 520c.6 1.1 1.3 2 1.6 2 .2 0 0-.9-.6-2s-1.3-2-1.6-2c-.2 0 0 .9.6 2zM655 520c-.6 1.1-.8 2-.6 2 .3 0 1-.9 1.6-2 .6-1.1.8-2 .6-2-.3 0-1 .9-1.6 2zM47.5 526c.9 1.6 1.8 3 2.1 3 .2 0-.2-1.4-1.1-3-.9-1.7-1.8-3-2.1-3-.2 0 .2 1.3 1.1 3zM651.5 526c-.9 1.6-1.3 3-1.1 3 .3 0 1.2-1.4 2.1-3 .9-1.7 1.3-3 1.1-3-.3 0-1.2 1.3-2.1 3zM51 532c.6 1.1 1.3 2 1.6 2 .2 0 0-.9-.6-2s-1.3-2-1.6-2c-.2 0 0 .9.6 2zM648 532c-.6 1.1-.8 2-.6 2 .3 0 1-.9 1.6-2 .6-1.1.8-2 .6-2-.3 0-1 .9-1.6 2zM60 545.9c.5 1.1 1.5 2.3 2.1 2.7.6.3.3-.5-.6-2-2-3-3-3.5-1.5-.7zM638.5 546.6c-.9 1.5-1.2 2.3-.6 2 1.1-.7 3.5-4.6 2.8-4.6-.3 0-1.2 1.2-2.2 2.6zM65 553c1.2 1.6 2.4 3 2.6 3 .3 0-.4-1.4-1.6-3-1.2-1.7-2.4-3-2.6-3-.3 0 .4 1.3 1.6 3zM634 553c-1.2 1.6-1.9 3-1.6 3 .2 0 1.4-1.4 2.6-3 1.2-1.7 1.9-3 1.6-3-.2 0-1.4 1.3-2.6 3zM68 557.4c0 .2.8 1 1.8 1.7 1.5 1.3 1.6 1.2.3-.4s-2.1-2.1-2.1-1.3zM629.9 558.7c-1.3 1.6-1.2 1.7.4.4 1.6-1.3 2.1-2.1 1.3-2.1-.2 0-1 .8-1.7 1.7zM71 561.4c0 .2.8 1 1.8 1.7 1.5 1.3 1.6 1.2.3-.4s-2.1-2.1-2.1-1.3zM626.9 562.7c-1.3 1.6-1.2 1.7.4.4 1.6-1.3 2.1-2.1 1.3-2.1-.2 0-1 .8-1.7 1.7zM75.5 567c1 1.1 2 2 2.3 2 .3 0-.3-.9-1.3-2s-2-2-2.3-2c-.3 0 .3.9 1.3 2zM623.4 567.2l-1.9 2.3 2.3-1.9c2.1-1.8 2.7-2.6 1.9-2.6-.2 0-1.2 1-2.3 2.2zM79.5 572c1 1.1 2 2 2.3 2 .3 0-.3-.9-1.3-2s-2-2-2.3-2c-.3 0 .3.9 1.3 2zM619.4 572.2l-1.9 2.3 2.3-1.9c2.1-1.8 2.7-2.6 1.9-2.6-.2 0-1.2 1-2.3 2.2zM83 576.3c0 .2 1.5 1.6 3.3 3.3l3.2 2.9-2.9-3.3c-2.8-3-3.6-3.7-3.6-2.9zM613.4 579.2l-2.9 3.3 3.3-2.9c1.7-1.7 3.2-3.1 3.2-3.3 0-.8-.8-.1-3.6 2.9zM102.5 597c7.7 7.7 14.2 14 14.5 14 .2 0-5.8-6.3-13.5-14S89.3 583 89 583c-.2 0 5.8 6.3 13.5 14zM596.5 597.2l-14 14.3 14.3-14c7.8-7.7 14.2-14.1 14.2-14.2 0-.8-1.5.7-14.5 13.9zM118 611.3c0 .2 1.5 1.6 3.3 3.3l3.2 2.9-2.9-3.3c-2.8-3-3.6-3.7-3.6-2.9zM578.4 614.2l-2.9 3.3 3.3-2.9c1.7-1.7 3.2-3.1 3.2-3.3 0-.8-.8-.1-3.6 2.9zM127.5 620c1 1.1 2 2 2.3 2 .3 0-.3-.9-1.3-2s-2-2-2.3-2c-.3 0 .3.9 1.3 2zM571.4 620.2l-1.9 2.3 2.3-1.9c1.2-1.1 2.2-2.1 2.2-2.3 0-.8-.8-.2-2.6 1.9zM132.5 624c1 1.1 2 2 2.3 2 .3 0-.3-.9-1.3-2s-2-2-2.3-2c-.3 0 .3.9 1.3 2zM566.4 624.2l-1.9 2.3 2.3-1.9c1.2-1.1 2.2-2.1 2.2-2.3 0-.8-.8-.2-2.6 1.9zM136 626.4c0 .2.8 1 1.8 1.7 1.5 1.3 1.6 1.2.3-.4s-2.1-2.1-2.1-1.3zM561.9 627.7c-1.3 1.6-1.2 1.7.4.4.9-.7 1.7-1.5 1.7-1.7 0-.8-.8-.3-2.1 1.3zM140 629.4c0 .2.8 1 1.8 1.7 1.5 1.3 1.6 1.2.3-.4s-2.1-2.1-2.1-1.3zM557.9 630.7c-1.3 1.6-1.2 1.7.4.4.9-.7 1.7-1.5 1.7-1.7 0-.8-.8-.3-2.1 1.3zM144 632.4c0 .2 1.4 1.4 3 2.6 1.7 1.2 3 1.9 3 1.6 0-.2-1.3-1.4-3-2.6-1.6-1.2-3-1.9-3-1.6zM552.5 634.6l-3 2.6 3.3-2.2c1.7-1.2 3.2-2.3 3.2-2.6 0-.7-.4-.5-3.5 2.2zM151.4 637.9c.7 1.1 4.6 3.5 4.6 2.8 0-.3-1.2-1.2-2.6-2.2-1.5-.9-2.3-1.2-2-.6zM546 639.1c-2.2 1.8-2.2 1.9-.3 1 1.2-.6 2.5-1.6 2.8-2.1.9-1.5.3-1.2-2.5 1.1zM166 647.4c0 .3.9 1 2 1.6 1.1.6 2 .8 2 .6 0-.3-.9-1-2-1.6-1.1-.6-2-.8-2-.6zM531.4 648.6c-1.8 1.4-1.8 1.5.4.4 1.2-.6 2.2-1.3 2.2-1.5 0-.8-.5-.6-2.6 1.1zM171 650.4c0 .3 1.4 1.2 3 2.1 1.7.9 3 1.3 3 1.1 0-.3-1.3-1.2-3-2.1-1.6-.9-3-1.3-3-1.1zM525.8 651.6c-3.8 2-3.6 2.8.2.9 1.7-.9 3-1.8 3-2 0-.7-.1-.6-3.2 1.1zM178 654.4c0 .3.9 1 2 1.6 1.1.6 2 .8 2 .6 0-.3-.9-1-2-1.6-1.1-.6-2-.8-2-.6zM519.4 655.6c-1.8 1.4-1.8 1.5.4.4 1.2-.6 2.2-1.3 2.2-1.5 0-.8-.5-.6-2.6 1.1zM206 669c.8.5 2 1 2.5 1 .6 0 .3-.5-.5-1s-1.9-1-2.5-1c-.5 0-.3.5.5 1zM492 669c-.8.5-1 1-.5 1 .6 0 1.7-.5 2.5-1s1.1-1 .5-1c-.5 0-1.7.5-2.5 1zM254.8 686.7c.7.3 1.6.2 1.9-.1.4-.3-.2-.6-1.3-.5-1.1 0-1.4.3-.6.6zM443.8 686.7c.7.3 1.6.2 1.9-.1.4-.3-.2-.6-1.3-.5-1.1 0-1.4.3-.6.6zM261.8 688.7c.7.3 1.6.2 1.9-.1.4-.3-.2-.6-1.3-.5-1.1 0-1.4.3-.6.6zM436.8 688.7c.7.3 1.6.2 1.9-.1.4-.3-.2-.6-1.3-.5-1.1 0-1.4.3-.6.6zM265.8 689.7c.7.3 1.6.2 1.9-.1.4-.3-.2-.6-1.3-.5-1.1 0-1.4.3-.6.6zM432.8 689.7c.7.3 1.6.2 1.9-.1.4-.3-.2-.6-1.3-.5-1.1 0-1.4.3-.6.6zM274.8 691.7c.7.3 1.6.2 1.9-.1.4-.3-.2-.6-1.3-.5-1.1 0-1.4.3-.6.6zM423.8 691.7c.7.3 1.6.2 1.9-.1.4-.3-.2-.6-1.3-.5-1.1 0-1.4.3-.6.6zM278.8 692.7c.6.2 1.8.2 2.5 0 .6-.3.1-.5-1.3-.5-1.4 0-1.9.2-1.2.5zM418.8 692.7c.6.2 1.8.2 2.5 0 .6-.3.1-.5-1.3-.5-1.4 0-1.9.2-1.2.5zM284.8 693.7c.7.3 1.6.2 1.9-.1.4-.3-.2-.6-1.3-.5-1.1 0-1.4.3-.6.6zM413.8 693.7c.7.3 1.6.2 1.9-.1.4-.3-.2-.6-1.3-.5-1.1 0-1.4.3-.6.6zM289.8 694.7c.6.2 1.8.2 2.5 0 .6-.3.1-.5-1.3-.5-1.4 0-1.9.2-1.2.5zM407.8 694.7c.6.2 1.8.2 2.5 0 .6-.3.1-.5-1.3-.5-1.4 0-1.9.2-1.2.5zM295.8 695.7c.6.2 1.8.2 2.5 0 .6-.3.1-.5-1.3-.5-1.4 0-1.9.2-1.2.5zM401.8 695.7c.6.2 1.8.2 2.5 0 .6-.3.1-.5-1.3-.5-1.4 0-1.9.2-1.2.5zM303.3 696.7c.9.2 2.3.2 3 0 .6-.3-.1-.5-1.8-.5-1.6 0-2.2.2-1.2.5zM394.3 696.7c.9.2 2.3.2 3 0 .6-.3-.1-.5-1.8-.5-1.6 0-2.2.2-1.2.5zM311.3 697.7c.9.2 2.3.2 3 0 .6-.3-.1-.5-1.8-.5-1.6 0-2.2.2-1.2.5zM386.3 697.7c.9.2 2.3.2 3 0 .6-.3-.1-.5-1.8-.5-1.6 0-2.2.2-1.2.5zM321.8 698.7c1.2.2 3.2.2 4.5 0 1.2-.2.2-.4-2.3-.4s-3.5.2-2.2.4zM373.8 698.7c1.2.2 3.2.2 4.5 0 1.2-.2.2-.4-2.3-.4s-3.5.2-2.2.4zM342.8 699.7c3.9.2 10.5.2 14.5 0 3.9-.1.7-.3-7.3-.3s-11.2.2-7.2.3z"/></svg>